<?xml version="1.0" encoding="UTF-8"?>
<svg id="Livello_1" data-name="Livello 1" xmlns="http://www.w3.org/2000/svg" viewBox="0 0 162.35 161.79">
  <defs>
    <style>
      .cls-1 {
        fill: #0071bc;
      }
    </style>
  </defs>
  <g>
    <path class="cls-1" d="M41.24,112.81v-14.77h-2.24v-2.46h7.53v2.46h-2.32v5.63h8.57v-5.63h-2.31v-2.46h7.53v2.46h-2.25v14.77h2.25v2.46h-7.53v-2.46h2.31v-6.67h-8.57v6.67h2.32v2.46h-7.53v-2.46h2.24Z"/>
    <path class="cls-1" d="M59.86,108.42c0-2.11.7-3.85,2.1-5.2s3.1-2.03,5.11-2.03,3.67.67,5.08,2,2.12,3.08,2.12,5.23-.71,3.9-2.12,5.24c-1.41,1.34-3.11,2.01-5.09,2.01s-3.75-.68-5.13-2.04c-1.38-1.36-2.07-3.1-2.07-5.21ZM62.7,108.41c0,1.35.42,2.46,1.27,3.32.84.87,1.88,1.3,3.09,1.3s2.27-.44,3.11-1.31c.84-.87,1.25-1.98,1.25-3.31s-.42-2.45-1.27-3.32c-.85-.87-1.88-1.3-3.09-1.3s-2.31.44-3.13,1.33c-.82.89-1.23,1.99-1.23,3.29Z"/>
    <path class="cls-1" d="M91.41,112.88v2.39h-5.05v-1.57c-1.58,1.2-3.09,1.8-4.53,1.8-.92,0-1.67-.2-2.27-.6s-1-.92-1.2-1.56-.3-1.66-.3-3.08v-6.3h-1.94v-2.39h4.63v8.35c0,1.01.03,1.69.08,2.04s.22.64.5.86.62.34,1.03.34c1.25,0,2.58-.59,3.99-1.78v-7.42h-2.42v-2.39h5.11v11.31h2.36Z"/>
    <path class="cls-1" d="M92.89,115.27v-4.7h2.41v.45c.08.64.43,1.17,1.04,1.59s1.33.62,2.16.62,1.56-.15,2.08-.45.78-.72.78-1.26-.21-.9-.64-1.15-1.28-.47-2.56-.68c-1.89-.32-3.23-.84-4.04-1.55s-1.21-1.64-1.21-2.77.44-2.1,1.32-2.87c.88-.77,2.03-1.16,3.47-1.16,1.29,0,2.41.27,3.34.8v-.59h2.39v4.54h-2.39v-.84c-.73-1.12-1.78-1.68-3.17-1.68-.71,0-1.29.15-1.75.46s-.69.71-.69,1.22.21.88.63,1.07,1.32.4,2.71.61c1.33.21,2.34.45,3.02.73s1.24.74,1.69,1.39.67,1.4.67,2.26c0,1.28-.49,2.29-1.47,3.04s-2.24,1.13-3.8,1.13c-1.46,0-2.66-.33-3.58-1v.77h-2.41Z"/>
    <path class="cls-1" d="M120.52,109.1h-11.52c.17,1.26.67,2.29,1.5,3.07s1.89,1.18,3.19,1.18c1.88,0,3.36-.76,4.46-2.27l2.38,1.05c-.77,1.2-1.78,2.09-3.02,2.67-1.24.58-2.53.87-3.88.87-2.1,0-3.89-.65-5.37-1.96s-2.23-3.07-2.23-5.29.72-3.84,2.17-5.2c1.45-1.36,3.11-2.04,4.99-2.04s3.51.66,5,1.99c1.5,1.33,2.27,3.3,2.33,5.92ZM117.75,107.15c-.19-.96-.69-1.83-1.5-2.61s-1.81-1.17-2.99-1.17c-1.08,0-2,.35-2.76,1.05s-1.23,1.61-1.4,2.73h8.65Z"/>
  </g>
  <g>
    <path class="cls-1" d="M40.71,130.76v-10.2h-1.63v-1.7h4.66l3.58,9.33,3.62-9.33h4.7v1.7h-1.64v10.2h1.64v1.7h-5.12v-1.7h1.62v-10.2l-4.69,12.04h-.4l-4.65-12.04v10.2h1.5v1.7h-4.81v-1.7h1.63Z"/>
    <path class="cls-1" d="M66.49,130.81v1.65h-3.25v-1.15c-.9.87-1.9,1.31-3.01,1.31-.86,0-1.61-.28-2.24-.84s-.95-1.28-.95-2.15.34-1.61,1.01-2.19,1.49-.87,2.44-.87c.89,0,1.74.27,2.57.8v-.94c0-.48-.05-.85-.14-1.11s-.3-.5-.64-.7-.77-.31-1.32-.31c-.93,0-1.61.37-2.02,1.11l-1.78-.47c.79-1.47,2.15-2.21,4.09-2.21.71,0,1.33.1,1.84.29s.9.44,1.16.74.43.63.51.98.13.91.13,1.68v4.38h1.59ZM63.05,128.94c-.8-.63-1.61-.94-2.44-.94-.52,0-.95.15-1.29.45s-.52.69-.52,1.16c0,.44.15.81.45,1.11s.72.45,1.24.45c.9,0,1.75-.38,2.55-1.13v-1.11Z"/>
    <path class="cls-1" d="M70.8,123v1.14c1.19-.86,2.28-1.29,3.27-1.29.61,0,1.12.15,1.52.44s.66.65.79,1.07.19,1.04.19,1.84v4.62h1.59v1.65h-3.45v-6.19c0-.72-.11-1.18-.32-1.4s-.48-.33-.79-.33c-.82,0-1.75.4-2.79,1.2v5.07h1.63v1.65h-5.15v-1.65h1.66v-6.16h-1.66v-1.65h3.52Z"/>
    <path class="cls-1" d="M88.6,130.81v1.65h-3.25v-1.15c-.9.87-1.9,1.31-3.01,1.31-.86,0-1.61-.28-2.24-.84s-.95-1.28-.95-2.15.34-1.61,1.01-2.19,1.49-.87,2.44-.87c.89,0,1.74.27,2.57.8v-.94c0-.48-.05-.85-.14-1.11s-.3-.5-.64-.7-.77-.31-1.32-.31c-.93,0-1.61.37-2.02,1.11l-1.78-.47c.79-1.47,2.15-2.21,4.09-2.21.71,0,1.33.1,1.84.29s.9.44,1.16.74.43.63.51.98.13.91.13,1.68v4.38h1.59ZM85.17,128.94c-.8-.63-1.61-.94-2.44-.94-.52,0-.95.15-1.29.45s-.52.69-.52,1.16c0,.44.15.81.45,1.11s.72.45,1.24.45c.9,0,1.75-.38,2.55-1.13v-1.11Z"/>
    <path class="cls-1" d="M101.15,123v1.65h-1.7v7.05c0,.95-.05,1.66-.15,2.12s-.33.93-.71,1.41-.94.88-1.69,1.21-1.59.49-2.51.49c-1.4,0-2.64-.42-3.74-1.26l1.21-1.35c.82.64,1.71.96,2.68.96.53,0,1.03-.1,1.49-.31s.8-.45,1.02-.75.37-.57.44-.84.1-.71.1-1.33v-.86c-.29.37-.75.72-1.38,1.06s-1.31.5-2.05.5c-1.36,0-2.46-.47-3.32-1.41s-1.28-2.09-1.28-3.46c0-1.5.47-2.71,1.41-3.63s2.03-1.38,3.27-1.38,2.37.5,3.34,1.5v-1.35h3.56ZM91.53,127.83c0,.96.28,1.74.84,2.35s1.27.91,2.14.91,1.58-.3,2.19-.91.92-1.39.92-2.35-.31-1.75-.92-2.34-1.32-.89-2.13-.89-1.52.29-2.12.88-.91,1.37-.91,2.36Z"/>
    <path class="cls-1" d="M111.71,128.2h-7.96c.12.87.46,1.58,1.04,2.12s1.31.81,2.2.81c1.3,0,2.32-.52,3.08-1.56l1.64.72c-.53.83-1.23,1.44-2.08,1.84s-1.75.6-2.68.6c-1.45,0-2.68-.45-3.71-1.35s-1.54-2.12-1.54-3.65.5-2.65,1.5-3.59,2.15-1.41,3.45-1.41,2.42.46,3.46,1.37,1.57,2.28,1.61,4.09ZM109.79,126.85c-.13-.67-.48-1.27-1.04-1.8s-1.25-.81-2.06-.81c-.74,0-1.38.24-1.91.73s-.85,1.11-.97,1.88h5.98Z"/>
    <path class="cls-1" d="M114.8,130.81v-6.16h-1.91v-1.65h3.39v2.13c.21-.55.5-1.01.87-1.38s.76-.61,1.18-.72.98-.18,1.7-.18h.49v1.88h-.37c-.95,0-1.65.09-2.12.28s-.81.53-1.04,1.03-.34,1.39-.34,2.68v2.08h2.06v1.65h-5.83v-1.65h1.91Z"/>
  </g>
  <path class="cls-1" d="M112.82,33.93h-11.01v-1.98c0-4.23-3.46-7.7-7.7-7.7h-26.94c-4.23,0-7.7,3.46-7.7,7.7v1.98h-12.14c-4.23,0-7.7,3.46-7.7,7.7v42.71c0,4.23,3.46,7.7,7.7,7.7h65.48c4.23,0,7.7-3.46,7.7-7.7v-42.71c0-4.23-3.46-7.7-7.7-7.7ZM68.45,33.87c0-1.69.69-3.23,1.8-4.34,1.12-1.11,2.65-1.8,4.34-1.8h11.38c3.38,0,6.14,2.76,6.14,6.14v.06h-23.66v-.06ZM83.33,85.38h-6.11v-12.65h0s0-.07,0-.11c0-1.68,1.37-3.04,3.04-3.04s3.05,1.36,3.05,3.04c0,.04,0,.07,0,.11h.03v12.65ZM80.6,62.26c-1.72,0-3.1-1.39-3.1-3.1s1.39-3.1,3.1-3.1,3.1,1.39,3.1,3.1-1.39,3.1-3.1,3.1ZM101.81,62.67v23.43h-5.73v-29.07h.08l-15.87-12.48c-5.1,4.16-10.2,8.32-15.3,12.48v29.07h-5.73v-23.43h-6.55l6.55-5.45c.08-.06.15-.12.22-.19l16.27-13.55,4.18-3.48.37-.31.38.31,4.32,3.48,16.82,13.55h0s6.99,5.64,6.99,5.64h-6.99Z"/>
</svg>